<svg xmlns="http://www.w3.org/2000/svg" xmlns:xlink="http://www.w3.org/1999/xlink" width="500" zoomAndPan="magnify" viewBox="0 0 375 374.999991" height="500" preserveAspectRatio="xMidYMid meet" version="1.0"><defs><g/></defs><rect x="-37.5" width="450" fill="#ffffff" y="-37.499999" height="449.999989" fill-opacity="1"/><rect x="-37.5" width="450" fill="#f9f6f0" y="-37.499999" height="449.999989" fill-opacity="1"/><g fill="#05a457" fill-opacity="1"><g transform="translate(90.021429, 196.201257)"><g><path d="M 7.875 -14.859375 C 9.007812 -14.859375 10.015625 -14.628906 10.890625 -14.171875 C 11.765625 -13.722656 12.453125 -13.164062 12.953125 -12.5 L 12.953125 -14.625 L 16 -14.625 L 16 0.234375 C 16 1.578125 15.710938 2.773438 15.140625 3.828125 C 14.578125 4.878906 13.757812 5.707031 12.6875 6.3125 C 11.625 6.914062 10.347656 7.21875 8.859375 7.21875 C 6.878906 7.21875 5.234375 6.753906 3.921875 5.828125 C 2.617188 4.898438 1.878906 3.640625 1.703125 2.046875 L 4.703125 2.046875 C 4.929688 2.804688 5.421875 3.421875 6.171875 3.890625 C 6.921875 4.359375 7.816406 4.59375 8.859375 4.59375 C 10.078125 4.59375 11.0625 4.21875 11.8125 3.46875 C 12.570312 2.726562 12.953125 1.648438 12.953125 0.234375 L 12.953125 -2.203125 C 12.429688 -1.515625 11.734375 -0.9375 10.859375 -0.46875 C 9.984375 0 8.988281 0.234375 7.875 0.234375 C 6.601562 0.234375 5.441406 -0.0859375 4.390625 -0.734375 C 3.335938 -1.378906 2.503906 -2.28125 1.890625 -3.4375 C 1.285156 -4.59375 0.984375 -5.90625 0.984375 -7.375 C 0.984375 -8.84375 1.285156 -10.140625 1.890625 -11.265625 C 2.503906 -12.398438 3.335938 -13.28125 4.390625 -13.90625 C 5.441406 -14.539062 6.601562 -14.859375 7.875 -14.859375 Z M 12.953125 -7.328125 C 12.953125 -8.328125 12.742188 -9.195312 12.328125 -9.9375 C 11.910156 -10.6875 11.363281 -11.253906 10.6875 -11.640625 C 10.019531 -12.035156 9.296875 -12.234375 8.515625 -12.234375 C 7.734375 -12.234375 7.003906 -12.039062 6.328125 -11.65625 C 5.660156 -11.28125 5.117188 -10.722656 4.703125 -9.984375 C 4.285156 -9.253906 4.078125 -8.382812 4.078125 -7.375 C 4.078125 -6.363281 4.285156 -5.476562 4.703125 -4.71875 C 5.117188 -3.957031 5.664062 -3.378906 6.34375 -2.984375 C 7.03125 -2.585938 7.753906 -2.390625 8.515625 -2.390625 C 9.296875 -2.390625 10.019531 -2.582031 10.6875 -2.96875 C 11.363281 -3.363281 11.910156 -3.9375 12.328125 -4.6875 C 12.742188 -5.4375 12.953125 -6.316406 12.953125 -7.328125 Z M 12.953125 -7.328125 "/></g></g></g><g fill="#05a457" fill-opacity="1"><g transform="translate(108.678278, 196.201257)"><g><path d="M 8.328125 0.234375 C 6.953125 0.234375 5.707031 -0.078125 4.59375 -0.703125 C 3.476562 -1.328125 2.601562 -2.207031 1.96875 -3.34375 C 1.332031 -4.488281 1.015625 -5.816406 1.015625 -7.328125 C 1.015625 -8.804688 1.335938 -10.117188 1.984375 -11.265625 C 2.640625 -12.421875 3.535156 -13.304688 4.671875 -13.921875 C 5.804688 -14.546875 7.070312 -14.859375 8.46875 -14.859375 C 9.863281 -14.859375 11.125 -14.546875 12.25 -13.921875 C 13.382812 -13.304688 14.28125 -12.421875 14.9375 -11.265625 C 15.59375 -10.117188 15.921875 -8.804688 15.921875 -7.328125 C 15.921875 -5.835938 15.582031 -4.515625 14.90625 -3.359375 C 14.238281 -2.210938 13.320312 -1.328125 12.15625 -0.703125 C 11 -0.078125 9.722656 0.234375 8.328125 0.234375 Z M 8.328125 -2.390625 C 9.109375 -2.390625 9.835938 -2.570312 10.515625 -2.9375 C 11.203125 -3.3125 11.753906 -3.867188 12.171875 -4.609375 C 12.597656 -5.359375 12.8125 -6.265625 12.8125 -7.328125 C 12.8125 -8.390625 12.609375 -9.285156 12.203125 -10.015625 C 11.796875 -10.742188 11.253906 -11.296875 10.578125 -11.671875 C 9.910156 -12.046875 9.1875 -12.234375 8.40625 -12.234375 C 7.632812 -12.234375 6.914062 -12.046875 6.25 -11.671875 C 5.582031 -11.296875 5.050781 -10.742188 4.65625 -10.015625 C 4.269531 -9.285156 4.078125 -8.390625 4.078125 -7.328125 C 4.078125 -5.753906 4.476562 -4.535156 5.28125 -3.671875 C 6.09375 -2.816406 7.109375 -2.390625 8.328125 -2.390625 Z M 8.328125 -2.390625 "/></g></g></g><g fill="#05a457" fill-opacity="1"><g transform="translate(126.273572, 196.201257)"><g><path d="M 8.328125 0.234375 C 6.953125 0.234375 5.707031 -0.078125 4.59375 -0.703125 C 3.476562 -1.328125 2.601562 -2.207031 1.96875 -3.34375 C 1.332031 -4.488281 1.015625 -5.816406 1.015625 -7.328125 C 1.015625 -8.804688 1.335938 -10.117188 1.984375 -11.265625 C 2.640625 -12.421875 3.535156 -13.304688 4.671875 -13.921875 C 5.804688 -14.546875 7.070312 -14.859375 8.46875 -14.859375 C 9.863281 -14.859375 11.125 -14.546875 12.25 -13.921875 C 13.382812 -13.304688 14.28125 -12.421875 14.9375 -11.265625 C 15.59375 -10.117188 15.921875 -8.804688 15.921875 -7.328125 C 15.921875 -5.835938 15.582031 -4.515625 14.90625 -3.359375 C 14.238281 -2.210938 13.320312 -1.328125 12.15625 -0.703125 C 11 -0.078125 9.722656 0.234375 8.328125 0.234375 Z M 8.328125 -2.390625 C 9.109375 -2.390625 9.835938 -2.570312 10.515625 -2.9375 C 11.203125 -3.3125 11.753906 -3.867188 12.171875 -4.609375 C 12.597656 -5.359375 12.8125 -6.265625 12.8125 -7.328125 C 12.8125 -8.390625 12.609375 -9.285156 12.203125 -10.015625 C 11.796875 -10.742188 11.253906 -11.296875 10.578125 -11.671875 C 9.910156 -12.046875 9.1875 -12.234375 8.40625 -12.234375 C 7.632812 -12.234375 6.914062 -12.046875 6.25 -11.671875 C 5.582031 -11.296875 5.050781 -10.742188 4.65625 -10.015625 C 4.269531 -9.285156 4.078125 -8.390625 4.078125 -7.328125 C 4.078125 -5.753906 4.476562 -4.535156 5.28125 -3.671875 C 6.09375 -2.816406 7.109375 -2.390625 8.328125 -2.390625 Z M 8.328125 -2.390625 "/></g></g></g><g fill="#05a457" fill-opacity="1"><g transform="translate(143.868865, 196.201257)"><g><path d="M 0.984375 -7.375 C 0.984375 -8.84375 1.285156 -10.140625 1.890625 -11.265625 C 2.503906 -12.398438 3.335938 -13.28125 4.390625 -13.90625 C 5.441406 -14.539062 6.613281 -14.859375 7.90625 -14.859375 C 8.863281 -14.859375 9.804688 -14.648438 10.734375 -14.234375 C 11.660156 -13.816406 12.398438 -13.265625 12.953125 -12.578125 L 12.953125 -19.640625 L 16 -19.640625 L 16 0 L 12.953125 0 L 12.953125 -2.203125 C 12.453125 -1.492188 11.765625 -0.910156 10.890625 -0.453125 C 10.015625 0.00390625 9.007812 0.234375 7.875 0.234375 C 6.601562 0.234375 5.441406 -0.0859375 4.390625 -0.734375 C 3.335938 -1.378906 2.503906 -2.28125 1.890625 -3.4375 C 1.285156 -4.59375 0.984375 -5.90625 0.984375 -7.375 Z M 12.953125 -7.328125 C 12.953125 -8.328125 12.742188 -9.195312 12.328125 -9.9375 C 11.910156 -10.6875 11.363281 -11.253906 10.6875 -11.640625 C 10.019531 -12.035156 9.296875 -12.234375 8.515625 -12.234375 C 7.734375 -12.234375 7.003906 -12.039062 6.328125 -11.65625 C 5.660156 -11.28125 5.117188 -10.722656 4.703125 -9.984375 C 4.285156 -9.253906 4.078125 -8.382812 4.078125 -7.375 C 4.078125 -6.363281 4.285156 -5.476562 4.703125 -4.71875 C 5.117188 -3.957031 5.664062 -3.378906 6.34375 -2.984375 C 7.03125 -2.585938 7.753906 -2.390625 8.515625 -2.390625 C 9.296875 -2.390625 10.019531 -2.582031 10.6875 -2.96875 C 11.363281 -3.363281 11.910156 -3.9375 12.328125 -4.6875 C 12.742188 -5.4375 12.953125 -6.316406 12.953125 -7.328125 Z M 12.953125 -7.328125 "/></g></g></g><g fill="#05a457" fill-opacity="1"><g transform="translate(162.525716, 196.201257)"><g><path d="M 5.015625 -12.4375 C 5.523438 -13.144531 6.226562 -13.722656 7.125 -14.171875 C 8.019531 -14.628906 9.015625 -14.859375 10.109375 -14.859375 C 11.398438 -14.859375 12.566406 -14.546875 13.609375 -13.921875 C 14.648438 -13.304688 15.472656 -12.425781 16.078125 -11.28125 C 16.679688 -10.144531 16.984375 -8.84375 16.984375 -7.375 C 16.984375 -5.90625 16.679688 -4.59375 16.078125 -3.4375 C 15.472656 -2.28125 14.644531 -1.378906 13.59375 -0.734375 C 12.539062 -0.0859375 11.378906 0.234375 10.109375 0.234375 C 8.972656 0.234375 7.96875 0.015625 7.09375 -0.421875 C 6.21875 -0.867188 5.523438 -1.4375 5.015625 -2.125 L 5.015625 0 L 1.984375 0 L 1.984375 -19.640625 L 5.015625 -19.640625 Z M 13.90625 -7.375 C 13.90625 -8.382812 13.695312 -9.253906 13.28125 -9.984375 C 12.863281 -10.722656 12.3125 -11.28125 11.625 -11.65625 C 10.945312 -12.039062 10.21875 -12.234375 9.4375 -12.234375 C 8.675781 -12.234375 7.957031 -12.035156 7.28125 -11.640625 C 6.601562 -11.253906 6.054688 -10.6875 5.640625 -9.9375 C 5.222656 -9.195312 5.015625 -8.328125 5.015625 -7.328125 C 5.015625 -6.316406 5.222656 -5.4375 5.640625 -4.6875 C 6.054688 -3.9375 6.601562 -3.363281 7.28125 -2.96875 C 7.957031 -2.582031 8.675781 -2.390625 9.4375 -2.390625 C 10.21875 -2.390625 10.945312 -2.585938 11.625 -2.984375 C 12.3125 -3.378906 12.863281 -3.957031 13.28125 -4.71875 C 13.695312 -5.476562 13.90625 -6.363281 13.90625 -7.375 Z M 13.90625 -7.375 "/></g></g></g><g fill="#05a457" fill-opacity="1"><g transform="translate(181.182567, 196.201257)"><g><path d="M 8.328125 0.234375 C 6.953125 0.234375 5.707031 -0.078125 4.59375 -0.703125 C 3.476562 -1.328125 2.601562 -2.207031 1.96875 -3.34375 C 1.332031 -4.488281 1.015625 -5.816406 1.015625 -7.328125 C 1.015625 -8.804688 1.335938 -10.117188 1.984375 -11.265625 C 2.640625 -12.421875 3.535156 -13.304688 4.671875 -13.921875 C 5.804688 -14.546875 7.070312 -14.859375 8.46875 -14.859375 C 9.863281 -14.859375 11.125 -14.546875 12.25 -13.921875 C 13.382812 -13.304688 14.28125 -12.421875 14.9375 -11.265625 C 15.59375 -10.117188 15.921875 -8.804688 15.921875 -7.328125 C 15.921875 -5.835938 15.582031 -4.515625 14.90625 -3.359375 C 14.238281 -2.210938 13.320312 -1.328125 12.15625 -0.703125 C 11 -0.078125 9.722656 0.234375 8.328125 0.234375 Z M 8.328125 -2.390625 C 9.109375 -2.390625 9.835938 -2.570312 10.515625 -2.9375 C 11.203125 -3.3125 11.753906 -3.867188 12.171875 -4.609375 C 12.597656 -5.359375 12.8125 -6.265625 12.8125 -7.328125 C 12.8125 -8.390625 12.609375 -9.285156 12.203125 -10.015625 C 11.796875 -10.742188 11.253906 -11.296875 10.578125 -11.671875 C 9.910156 -12.046875 9.1875 -12.234375 8.40625 -12.234375 C 7.632812 -12.234375 6.914062 -12.046875 6.25 -11.671875 C 5.582031 -11.296875 5.050781 -10.742188 4.65625 -10.015625 C 4.269531 -9.285156 4.078125 -8.390625 4.078125 -7.328125 C 4.078125 -5.753906 4.476562 -4.535156 5.28125 -3.671875 C 6.09375 -2.816406 7.109375 -2.390625 8.328125 -2.390625 Z M 8.328125 -2.390625 "/></g></g></g><g fill="#05a457" fill-opacity="1"><g transform="translate(198.777863, 196.201257)"><g><path d="M 15.15625 -14.625 L 6.1875 6.875 L 3.046875 6.875 L 6.015625 -0.234375 L 0.265625 -14.625 L 3.640625 -14.625 L 7.75 -3.46875 L 12.015625 -14.625 Z M 15.15625 -14.625 "/></g></g></g><g fill="#05a457" fill-opacity="1"><g transform="translate(214.88699, 196.201257)"><g><path d="M 3.203125 0.1875 C 2.660156 0.1875 2.203125 0.00390625 1.828125 -0.359375 C 1.460938 -0.734375 1.28125 -1.195312 1.28125 -1.75 C 1.28125 -2.300781 1.460938 -2.757812 1.828125 -3.125 C 2.203125 -3.5 2.660156 -3.6875 3.203125 -3.6875 C 3.734375 -3.6875 4.1875 -3.5 4.5625 -3.125 C 4.9375 -2.757812 5.125 -2.300781 5.125 -1.75 C 5.125 -1.195312 4.9375 -0.734375 4.5625 -0.359375 C 4.1875 0.00390625 3.734375 0.1875 3.203125 0.1875 Z M 3.203125 0.1875 "/></g></g></g><g fill="#05a457" fill-opacity="1"><g transform="translate(221.946381, 196.201257)"><g><path d="M 0.984375 -7.328125 C 0.984375 -8.828125 1.285156 -10.144531 1.890625 -11.28125 C 2.503906 -12.425781 3.347656 -13.304688 4.421875 -13.921875 C 5.503906 -14.546875 6.742188 -14.859375 8.140625 -14.859375 C 9.910156 -14.859375 11.375 -14.4375 12.53125 -13.59375 C 13.695312 -12.757812 14.484375 -11.5625 14.890625 -10 L 11.625 -10 C 11.351562 -10.726562 10.925781 -11.296875 10.34375 -11.703125 C 9.757812 -12.109375 9.023438 -12.3125 8.140625 -12.3125 C 6.898438 -12.3125 5.910156 -11.875 5.171875 -11 C 4.441406 -10.125 4.078125 -8.898438 4.078125 -7.328125 C 4.078125 -5.753906 4.441406 -4.523438 5.171875 -3.640625 C 5.910156 -2.753906 6.898438 -2.3125 8.140625 -2.3125 C 9.890625 -2.3125 11.050781 -3.078125 11.625 -4.609375 L 14.890625 -4.609375 C 14.460938 -3.128906 13.664062 -1.953125 12.5 -1.078125 C 11.332031 -0.203125 9.878906 0.234375 8.140625 0.234375 C 6.742188 0.234375 5.503906 -0.078125 4.421875 -0.703125 C 3.347656 -1.328125 2.503906 -2.207031 1.890625 -3.34375 C 1.285156 -4.488281 0.984375 -5.816406 0.984375 -7.328125 Z M 0.984375 -7.328125 "/></g></g></g><g fill="#05a457" fill-opacity="1"><g transform="translate(238.533198, 196.201257)"><g><path d="M 9.546875 -14.859375 C 10.660156 -14.859375 11.65625 -14.617188 12.53125 -14.140625 C 13.40625 -13.660156 14.09375 -12.953125 14.59375 -12.015625 C 15.101562 -11.078125 15.359375 -9.945312 15.359375 -8.625 L 15.359375 0 L 12.359375 0 L 12.359375 -8.171875 C 12.359375 -9.484375 12.03125 -10.488281 11.375 -11.1875 C 10.726562 -11.882812 9.835938 -12.234375 8.703125 -12.234375 C 7.566406 -12.234375 6.664062 -11.882812 6 -11.1875 C 5.34375 -10.488281 5.015625 -9.484375 5.015625 -8.171875 L 5.015625 0 L 1.984375 0 L 1.984375 -19.640625 L 5.015625 -19.640625 L 5.015625 -12.921875 C 5.523438 -13.535156 6.171875 -14.007812 6.953125 -14.34375 C 7.742188 -14.6875 8.609375 -14.859375 9.546875 -14.859375 Z M 9.546875 -14.859375 "/></g></g></g><g fill="#05a457" fill-opacity="1"><g transform="translate(256.420424, 196.201257)"><g><path d="M 0.984375 -7.375 C 0.984375 -8.84375 1.285156 -10.140625 1.890625 -11.265625 C 2.503906 -12.398438 3.335938 -13.28125 4.390625 -13.90625 C 5.441406 -14.539062 6.601562 -14.859375 7.875 -14.859375 C 9.03125 -14.859375 10.035156 -14.628906 10.890625 -14.171875 C 11.742188 -13.722656 12.429688 -13.164062 12.953125 -12.5 L 12.953125 -14.625 L 16 -14.625 L 16 0 L 12.953125 0 L 12.953125 -2.171875 C 12.429688 -1.484375 11.726562 -0.910156 10.84375 -0.453125 C 9.96875 0.00390625 8.960938 0.234375 7.828125 0.234375 C 6.566406 0.234375 5.414062 -0.0859375 4.375 -0.734375 C 3.332031 -1.378906 2.503906 -2.28125 1.890625 -3.4375 C 1.285156 -4.59375 0.984375 -5.90625 0.984375 -7.375 Z M 12.953125 -7.328125 C 12.953125 -8.328125 12.742188 -9.195312 12.328125 -9.9375 C 11.910156 -10.6875 11.363281 -11.253906 10.6875 -11.640625 C 10.019531 -12.035156 9.296875 -12.234375 8.515625 -12.234375 C 7.734375 -12.234375 7.003906 -12.039062 6.328125 -11.65625 C 5.660156 -11.28125 5.117188 -10.722656 4.703125 -9.984375 C 4.285156 -9.253906 4.078125 -8.382812 4.078125 -7.375 C 4.078125 -6.363281 4.285156 -5.476562 4.703125 -4.71875 C 5.117188 -3.957031 5.664062 -3.378906 6.34375 -2.984375 C 7.03125 -2.585938 7.753906 -2.390625 8.515625 -2.390625 C 9.296875 -2.390625 10.019531 -2.582031 10.6875 -2.96875 C 11.363281 -3.363281 11.910156 -3.9375 12.328125 -4.6875 C 12.742188 -5.4375 12.953125 -6.316406 12.953125 -7.328125 Z M 12.953125 -7.328125 "/></g></g></g><g fill="#05a457" fill-opacity="1"><g transform="translate(275.077269, 196.201257)"><g><path d="M 5.515625 -12.15625 L 5.515625 -4.0625 C 5.515625 -3.507812 5.640625 -3.113281 5.890625 -2.875 C 6.148438 -2.632812 6.59375 -2.515625 7.21875 -2.515625 L 9.078125 -2.515625 L 9.078125 0 L 6.6875 0 C 5.320312 0 4.273438 -0.316406 3.546875 -0.953125 C 2.828125 -1.585938 2.46875 -2.625 2.46875 -4.0625 L 2.46875 -12.15625 L 0.75 -12.15625 L 0.75 -14.625 L 2.46875 -14.625 L 2.46875 -18.25 L 5.515625 -18.25 L 5.515625 -14.625 L 9.078125 -14.625 L 9.078125 -12.15625 Z M 5.515625 -12.15625 "/></g></g></g></svg>